<mxfile host="app.diagrams.net" agent="Mozilla/5.0 (Windows NT 10.0; Win64; x64) AppleWebKit/537.36 (KHTML, like Gecko) Chrome/134.0.0.0 Safari/537.36" version="26.1.3">
  <diagram name="Strona-1" id="JLB-At0S1gUeQrK91zkd">
    <mxGraphModel dx="1434" dy="780" grid="1" gridSize="10" guides="1" tooltips="1" connect="1" arrows="1" fold="1" page="1" pageScale="1" pageWidth="827" pageHeight="1169" math="0" shadow="0">
      <root>
        <mxCell id="0" />
        <mxCell id="1" parent="0" />
        <mxCell id="w-jb7tbA7MqrA1fsgTko-21" style="edgeStyle=orthogonalEdgeStyle;rounded=0;orthogonalLoop=1;jettySize=auto;html=1;exitX=1;exitY=0.5;exitDx=0;exitDy=0;entryX=0;entryY=0.5;entryDx=0;entryDy=0;endArrow=none;startFill=0;" edge="1" parent="1" source="w-jb7tbA7MqrA1fsgTko-1" target="w-jb7tbA7MqrA1fsgTko-2">
          <mxGeometry relative="1" as="geometry" />
        </mxCell>
        <mxCell id="w-jb7tbA7MqrA1fsgTko-1" value="Klient" style="rounded=0;whiteSpace=wrap;html=1;" vertex="1" parent="1">
          <mxGeometry x="305" y="350" width="90" height="30" as="geometry" />
        </mxCell>
        <mxCell id="w-jb7tbA7MqrA1fsgTko-26" style="edgeStyle=orthogonalEdgeStyle;rounded=0;orthogonalLoop=1;jettySize=auto;html=1;exitX=0.5;exitY=1;exitDx=0;exitDy=0;endArrow=none;startFill=0;startArrow=open;startSize=16;" edge="1" parent="1" source="w-jb7tbA7MqrA1fsgTko-2" target="w-jb7tbA7MqrA1fsgTko-27">
          <mxGeometry relative="1" as="geometry">
            <mxPoint x="550" y="510" as="targetPoint" />
          </mxGeometry>
        </mxCell>
        <mxCell id="w-jb7tbA7MqrA1fsgTko-31" value="&amp;nbsp; &amp;nbsp; &amp;nbsp; &amp;nbsp; &amp;nbsp; &amp;nbsp; &amp;nbsp; &amp;nbsp; &amp;nbsp; &amp;nbsp; &amp;nbsp; ▲Rejestruje" style="edgeLabel;html=1;align=center;verticalAlign=middle;resizable=0;points=[];" vertex="1" connectable="0" parent="w-jb7tbA7MqrA1fsgTko-26">
          <mxGeometry x="0.2267" y="-3" relative="1" as="geometry">
            <mxPoint as="offset" />
          </mxGeometry>
        </mxCell>
        <mxCell id="w-jb7tbA7MqrA1fsgTko-34" style="edgeStyle=orthogonalEdgeStyle;rounded=0;orthogonalLoop=1;jettySize=auto;html=1;exitX=0.5;exitY=0;exitDx=0;exitDy=0;entryX=0.5;entryY=1;entryDx=0;entryDy=0;endArrow=open;endFill=0;endSize=16;" edge="1" parent="1" source="w-jb7tbA7MqrA1fsgTko-2" target="w-jb7tbA7MqrA1fsgTko-28">
          <mxGeometry relative="1" as="geometry" />
        </mxCell>
        <mxCell id="w-jb7tbA7MqrA1fsgTko-2" value="Przesyłka" style="rounded=0;whiteSpace=wrap;html=1;" vertex="1" parent="1">
          <mxGeometry x="500" y="350" width="100" height="30" as="geometry" />
        </mxCell>
        <mxCell id="w-jb7tbA7MqrA1fsgTko-15" style="edgeStyle=orthogonalEdgeStyle;rounded=0;orthogonalLoop=1;jettySize=auto;html=1;exitX=0.5;exitY=1;exitDx=0;exitDy=0;entryX=0.5;entryY=0;entryDx=0;entryDy=0;endArrow=diamondThin;startFill=0;endFill=0;endSize=16;" edge="1" parent="1" source="w-jb7tbA7MqrA1fsgTko-3" target="w-jb7tbA7MqrA1fsgTko-7">
          <mxGeometry relative="1" as="geometry" />
        </mxCell>
        <mxCell id="w-jb7tbA7MqrA1fsgTko-3" value="Płatność" style="rounded=0;whiteSpace=wrap;html=1;" vertex="1" parent="1">
          <mxGeometry x="85" y="180" width="100" height="30" as="geometry" />
        </mxCell>
        <mxCell id="w-jb7tbA7MqrA1fsgTko-6" value="" style="endArrow=none;html=1;rounded=0;entryX=1;entryY=0.5;entryDx=0;entryDy=0;exitX=0;exitY=0.5;exitDx=0;exitDy=0;startFill=0;" edge="1" parent="1" source="w-jb7tbA7MqrA1fsgTko-1" target="w-jb7tbA7MqrA1fsgTko-7">
          <mxGeometry width="50" height="50" relative="1" as="geometry">
            <mxPoint x="315" y="430" as="sourcePoint" />
            <mxPoint x="365" y="380" as="targetPoint" />
          </mxGeometry>
        </mxCell>
        <mxCell id="w-jb7tbA7MqrA1fsgTko-7" value="Korespondencja" style="rounded=0;whiteSpace=wrap;html=1;" vertex="1" parent="1">
          <mxGeometry x="75" y="335" width="120" height="60" as="geometry" />
        </mxCell>
        <mxCell id="w-jb7tbA7MqrA1fsgTko-8" value="forma&amp;nbsp;&lt;br&gt;komunikacji" style="text;html=1;align=center;verticalAlign=middle;resizable=0;points=[];autosize=1;strokeColor=none;fillColor=none;fontSize=9;" vertex="1" parent="1">
          <mxGeometry x="185" y="380" width="70" height="40" as="geometry" />
        </mxCell>
        <mxCell id="w-jb7tbA7MqrA1fsgTko-9" value="" style="endArrow=diamondThin;html=1;rounded=0;startFill=0;endFill=0;endSize=16;entryX=0.5;entryY=1;entryDx=0;entryDy=0;exitX=0.5;exitY=0;exitDx=0;exitDy=0;" edge="1" parent="1" source="w-jb7tbA7MqrA1fsgTko-10" target="w-jb7tbA7MqrA1fsgTko-7">
          <mxGeometry width="50" height="50" relative="1" as="geometry">
            <mxPoint x="25" y="460" as="sourcePoint" />
            <mxPoint x="135" y="530" as="targetPoint" />
          </mxGeometry>
        </mxCell>
        <mxCell id="w-jb7tbA7MqrA1fsgTko-10" value="Faktura" style="rounded=0;whiteSpace=wrap;html=1;" vertex="1" parent="1">
          <mxGeometry x="85" y="530" width="100" height="30" as="geometry" />
        </mxCell>
        <mxCell id="w-jb7tbA7MqrA1fsgTko-11" value="dokumenty" style="text;html=1;align=center;verticalAlign=middle;resizable=0;points=[];autosize=1;strokeColor=none;fillColor=none;" vertex="1" parent="1">
          <mxGeometry x="35" y="400" width="80" height="30" as="geometry" />
        </mxCell>
        <mxCell id="w-jb7tbA7MqrA1fsgTko-12" value="rozliczenie" style="text;html=1;align=center;verticalAlign=middle;resizable=0;points=[];autosize=1;strokeColor=none;fillColor=none;" vertex="1" parent="1">
          <mxGeometry x="35" y="500" width="80" height="30" as="geometry" />
        </mxCell>
        <mxCell id="w-jb7tbA7MqrA1fsgTko-13" value="1" style="text;html=1;align=center;verticalAlign=middle;resizable=0;points=[];autosize=1;strokeColor=none;fillColor=none;" vertex="1" parent="1">
          <mxGeometry x="145" y="395" width="30" height="30" as="geometry" />
        </mxCell>
        <mxCell id="w-jb7tbA7MqrA1fsgTko-14" value="0..*" style="text;html=1;align=center;verticalAlign=middle;resizable=0;points=[];autosize=1;strokeColor=none;fillColor=none;" vertex="1" parent="1">
          <mxGeometry x="140" y="500" width="40" height="30" as="geometry" />
        </mxCell>
        <mxCell id="w-jb7tbA7MqrA1fsgTko-16" value="1" style="text;html=1;align=center;verticalAlign=middle;resizable=0;points=[];autosize=1;strokeColor=none;fillColor=none;" vertex="1" parent="1">
          <mxGeometry x="145" y="305" width="30" height="30" as="geometry" />
        </mxCell>
        <mxCell id="w-jb7tbA7MqrA1fsgTko-17" value="0..*" style="text;html=1;align=center;verticalAlign=middle;resizable=0;points=[];autosize=1;strokeColor=none;fillColor=none;" vertex="1" parent="1">
          <mxGeometry x="140" y="210" width="40" height="30" as="geometry" />
        </mxCell>
        <mxCell id="w-jb7tbA7MqrA1fsgTko-18" value="dokumenty" style="text;html=1;align=center;verticalAlign=middle;resizable=0;points=[];autosize=1;strokeColor=none;fillColor=none;" vertex="1" parent="1">
          <mxGeometry x="35" y="300" width="80" height="30" as="geometry" />
        </mxCell>
        <mxCell id="w-jb7tbA7MqrA1fsgTko-19" value="zestawienie&lt;br&gt;płatności" style="text;html=1;align=center;verticalAlign=middle;resizable=0;points=[];autosize=1;strokeColor=none;fillColor=none;" vertex="1" parent="1">
          <mxGeometry x="10" y="203" width="90" height="40" as="geometry" />
        </mxCell>
        <mxCell id="w-jb7tbA7MqrA1fsgTko-20" value="nadawca" style="text;html=1;align=center;verticalAlign=middle;resizable=0;points=[];autosize=1;strokeColor=none;fillColor=none;" vertex="1" parent="1">
          <mxGeometry x="265" y="380" width="70" height="30" as="geometry" />
        </mxCell>
        <mxCell id="w-jb7tbA7MqrA1fsgTko-22" value="1" style="text;html=1;align=center;verticalAlign=middle;resizable=0;points=[];autosize=1;strokeColor=none;fillColor=none;" vertex="1" parent="1">
          <mxGeometry x="384" y="330" width="30" height="30" as="geometry" />
        </mxCell>
        <mxCell id="w-jb7tbA7MqrA1fsgTko-23" value="1..*" style="text;html=1;align=center;verticalAlign=middle;resizable=0;points=[];autosize=1;strokeColor=none;fillColor=none;" vertex="1" parent="1">
          <mxGeometry x="470" y="330" width="40" height="30" as="geometry" />
        </mxCell>
        <mxCell id="w-jb7tbA7MqrA1fsgTko-24" value="nadawca" style="text;html=1;align=center;verticalAlign=middle;resizable=0;points=[];autosize=1;strokeColor=none;fillColor=none;" vertex="1" parent="1">
          <mxGeometry x="379" y="380" width="70" height="30" as="geometry" />
        </mxCell>
        <mxCell id="w-jb7tbA7MqrA1fsgTko-25" value="przesyłka" style="text;html=1;align=center;verticalAlign=middle;resizable=0;points=[];autosize=1;strokeColor=none;fillColor=none;" vertex="1" parent="1">
          <mxGeometry x="445" y="378" width="70" height="30" as="geometry" />
        </mxCell>
        <mxCell id="w-jb7tbA7MqrA1fsgTko-27" value="Pracownik" style="rounded=0;whiteSpace=wrap;html=1;" vertex="1" parent="1">
          <mxGeometry x="500" y="570" width="100" height="30" as="geometry" />
        </mxCell>
        <mxCell id="w-jb7tbA7MqrA1fsgTko-38" style="edgeStyle=orthogonalEdgeStyle;rounded=0;orthogonalLoop=1;jettySize=auto;html=1;exitX=0;exitY=0.5;exitDx=0;exitDy=0;entryX=1;entryY=0.5;entryDx=0;entryDy=0;endArrow=none;startFill=0;" edge="1" parent="1" source="w-jb7tbA7MqrA1fsgTko-28" target="w-jb7tbA7MqrA1fsgTko-39">
          <mxGeometry relative="1" as="geometry">
            <mxPoint x="440" y="170" as="targetPoint" />
          </mxGeometry>
        </mxCell>
        <mxCell id="w-jb7tbA7MqrA1fsgTko-44" value="◄Jest przekazywana" style="edgeLabel;html=1;align=center;verticalAlign=middle;resizable=0;points=[];" vertex="1" connectable="0" parent="w-jb7tbA7MqrA1fsgTko-38">
          <mxGeometry x="0.3263" y="-2" relative="1" as="geometry">
            <mxPoint as="offset" />
          </mxGeometry>
        </mxCell>
        <mxCell id="w-jb7tbA7MqrA1fsgTko-28" value="Sortownia" style="rounded=0;whiteSpace=wrap;html=1;" vertex="1" parent="1">
          <mxGeometry x="490" y="68" width="120" height="60" as="geometry" />
        </mxCell>
        <mxCell id="w-jb7tbA7MqrA1fsgTko-29" value="1" style="text;html=1;align=center;verticalAlign=middle;resizable=0;points=[];autosize=1;strokeColor=none;fillColor=none;" vertex="1" parent="1">
          <mxGeometry x="285" y="330" width="30" height="30" as="geometry" />
        </mxCell>
        <mxCell id="w-jb7tbA7MqrA1fsgTko-30" value="*" style="text;html=1;align=center;verticalAlign=middle;resizable=0;points=[];autosize=1;strokeColor=none;fillColor=none;" vertex="1" parent="1">
          <mxGeometry x="195" y="330" width="30" height="30" as="geometry" />
        </mxCell>
        <mxCell id="w-jb7tbA7MqrA1fsgTko-32" value="1..*" style="text;html=1;align=center;verticalAlign=middle;resizable=0;points=[];autosize=1;strokeColor=none;fillColor=none;" vertex="1" parent="1">
          <mxGeometry x="570" y="378" width="40" height="30" as="geometry" />
        </mxCell>
        <mxCell id="w-jb7tbA7MqrA1fsgTko-33" value="1" style="text;html=1;align=center;verticalAlign=middle;resizable=0;points=[];autosize=1;strokeColor=none;fillColor=none;" vertex="1" parent="1">
          <mxGeometry x="555" y="538" width="30" height="30" as="geometry" />
        </mxCell>
        <mxCell id="w-jb7tbA7MqrA1fsgTko-36" value="1" style="text;html=1;align=center;verticalAlign=middle;resizable=0;points=[];autosize=1;strokeColor=none;fillColor=none;" vertex="1" parent="1">
          <mxGeometry x="555" y="128" width="30" height="30" as="geometry" />
        </mxCell>
        <mxCell id="w-jb7tbA7MqrA1fsgTko-37" value="1..*" style="text;html=1;align=center;verticalAlign=middle;resizable=0;points=[];autosize=1;strokeColor=none;fillColor=none;" vertex="1" parent="1">
          <mxGeometry x="550" y="318" width="40" height="30" as="geometry" />
        </mxCell>
        <mxCell id="w-jb7tbA7MqrA1fsgTko-39" value="Kurier" style="rounded=0;whiteSpace=wrap;html=1;" vertex="1" parent="1">
          <mxGeometry x="180" y="68" width="120" height="60" as="geometry" />
        </mxCell>
        <mxCell id="w-jb7tbA7MqrA1fsgTko-40" value="1..*" style="text;html=1;align=center;verticalAlign=middle;resizable=0;points=[];autosize=1;strokeColor=none;fillColor=none;" vertex="1" parent="1">
          <mxGeometry x="300" y="58" width="40" height="30" as="geometry" />
        </mxCell>
        <mxCell id="w-jb7tbA7MqrA1fsgTko-41" value="1..*" style="text;html=1;align=center;verticalAlign=middle;resizable=0;points=[];autosize=1;strokeColor=none;fillColor=none;" vertex="1" parent="1">
          <mxGeometry x="450" y="58" width="40" height="30" as="geometry" />
        </mxCell>
        <mxCell id="w-jb7tbA7MqrA1fsgTko-43" value="Przesyłka" style="text;html=1;align=center;verticalAlign=middle;resizable=0;points=[];autosize=1;strokeColor=none;fillColor=none;" vertex="1" parent="1">
          <mxGeometry x="410" y="110" width="80" height="30" as="geometry" />
        </mxCell>
        <mxCell id="w-jb7tbA7MqrA1fsgTko-45" value="kuriera" style="text;html=1;align=center;verticalAlign=middle;resizable=0;points=[];autosize=1;strokeColor=none;fillColor=none;" vertex="1" parent="1">
          <mxGeometry x="285" y="128" width="60" height="30" as="geometry" />
        </mxCell>
      </root>
    </mxGraphModel>
  </diagram>
</mxfile>
